<svg width="87" height="48" viewBox="0 0 87 48" fill="none" xmlns="http://www.w3.org/2000/svg">
<g clip-path="url(#clip0_160_842)">
<path d="M38.1451 30.0964C35.3429 34.8476 29.6374 37.1081 23.8682 37.1081H0.721191C24.8173 34.2703 41.5986 22.9189 43.75 7.10809C45.9015 22.9189 62.6827 34.2703 86.7789 37.1081H63.6319C57.8627 37.1081 52.1572 34.8476 49.355 30.0964C46.322 24.954 44.3896 19.1352 43.75 12.7838C43.1105 19.1352 41.1781 24.954 38.1451 30.0964Z" fill="#C40000"/>
<path d="M24.9077 28.4173C23.556 29.1343 22.1342 29.8078 20.6454 30.4351C19.7997 27.6827 19.4885 24.795 19.7367 21.9184C20.065 18.1129 21.3621 14.444 23.5132 11.237C25.6644 8.03002 28.603 5.38369 32.0689 3.53252C35.5348 1.68136 39.421 0.682462 43.3832 0.624335C47.3454 0.566199 51.2612 1.45062 54.784 3.19926C58.3068 4.94789 61.3277 7.50672 63.579 10.6492C65.8305 13.7916 67.2429 17.4207 67.6914 21.2148C68.0581 24.3182 67.7706 27.4537 66.8546 30.4351C65.3658 29.8078 63.9439 29.1342 62.5922 28.4172C63.1621 26.2376 63.3218 23.9701 63.0563 21.7235C62.6947 18.6639 61.5556 15.7374 59.7402 13.2034C57.9246 10.6694 55.4886 8.60586 52.6478 7.19578C49.807 5.78567 46.6492 5.07248 43.4542 5.11936C40.259 5.16623 37.1252 5.97174 34.3304 7.46448C31.5355 8.95726 29.1658 11.0912 27.4311 13.6774C25.6964 16.2636 24.6504 19.222 24.3857 22.2909C24.2077 24.3536 24.3864 26.4234 24.9077 28.4173Z" fill="white"/>
<g filter="url(#filter0_d_160_842)">
<mask id="path-3-outside-1_160_842" maskUnits="userSpaceOnUse" x="6" y="29" width="75" height="12" fill="black">
<rect fill="white" x="6" y="29" width="75" height="12"/>
<path d="M9.14307 31.1797V39H7.79492V31.1797H9.14307ZM12.3335 34.6011V35.6699H8.79932V34.6011H12.3335ZM12.7793 31.1797V32.2539H8.79932V31.1797H12.7793ZM15.793 31.1797V39H14.4448V31.1797H15.793ZM21.0249 31.1797V39H19.6875V31.1797H21.0249ZM23.4795 31.1797V32.2539H17.2544V31.1797H23.4795ZM28.54 31.1797H29.7432L32.0044 37.2114L34.2603 31.1797H35.4634L32.4771 39H31.521L28.54 31.1797ZM27.9922 31.1797H29.1362L29.335 36.4004V39H27.9922V31.1797ZM34.8672 31.1797H36.0166V39H34.6685V36.4004L34.8672 31.1797ZM44.353 34.875V35.3047C44.353 35.8955 44.276 36.4255 44.1221 36.8945C43.9681 37.3636 43.7479 37.7629 43.4614 38.0923C43.1785 38.4217 42.8384 38.6742 42.4409 38.8496C42.0435 39.0215 41.603 39.1074 41.1196 39.1074C40.6398 39.1074 40.2012 39.0215 39.8037 38.8496C39.4098 38.6742 39.0679 38.4217 38.7778 38.0923C38.4878 37.7629 38.2622 37.3636 38.1011 36.8945C37.9435 36.4255 37.8647 35.8955 37.8647 35.3047V34.875C37.8647 34.2842 37.9435 33.756 38.1011 33.2905C38.2586 32.8215 38.4806 32.4222 38.7671 32.0928C39.0571 31.7598 39.3991 31.5073 39.793 31.3354C40.1904 31.16 40.6291 31.0723 41.1089 31.0723C41.5923 31.0723 42.0327 31.16 42.4302 31.3354C42.8276 31.5073 43.1696 31.7598 43.4561 32.0928C43.7425 32.4222 43.9627 32.8215 44.1167 33.2905C44.2743 33.756 44.353 34.2842 44.353 34.875ZM43.0049 35.3047V34.8643C43.0049 34.4274 42.9619 34.0425 42.876 33.7095C42.7936 33.3729 42.6701 33.0918 42.5054 32.8662C42.3442 32.637 42.1455 32.4652 41.9092 32.3506C41.6729 32.2324 41.4061 32.1733 41.1089 32.1733C40.8117 32.1733 40.5467 32.2324 40.314 32.3506C40.0812 32.4652 39.8825 32.637 39.7178 32.8662C39.5566 33.0918 39.4331 33.3729 39.3472 33.7095C39.2612 34.0425 39.2183 34.4274 39.2183 34.8643V35.3047C39.2183 35.7415 39.2612 36.1283 39.3472 36.4648C39.4331 36.8014 39.5584 37.0861 39.7231 37.3188C39.8914 37.548 40.092 37.7217 40.3247 37.8398C40.5575 37.9544 40.8224 38.0117 41.1196 38.0117C41.4204 38.0117 41.6872 37.9544 41.9199 37.8398C42.1527 37.7217 42.3496 37.548 42.5107 37.3188C42.6719 37.0861 42.7936 36.8014 42.876 36.4648C42.9619 36.1283 43.0049 35.7415 43.0049 35.3047ZM52.4048 31.1797V39H51.0566L47.5493 33.3979V39H46.2012V31.1797H47.5493L51.0674 36.7925V31.1797H52.4048ZM55.9502 31.1797V39H54.6021V31.1797H55.9502ZM61.1821 31.1797V39H59.8447V31.1797H61.1821ZM63.6367 31.1797V32.2539H57.4116V31.1797H63.6367ZM71.2534 34.875V35.3047C71.2534 35.8955 71.1764 36.4255 71.0225 36.8945C70.8685 37.3636 70.6483 37.7629 70.3618 38.0923C70.0789 38.4217 69.7388 38.6742 69.3413 38.8496C68.9438 39.0215 68.5034 39.1074 68.02 39.1074C67.5402 39.1074 67.1016 39.0215 66.7041 38.8496C66.3102 38.6742 65.9683 38.4217 65.6782 38.0923C65.3882 37.7629 65.1626 37.3636 65.0015 36.8945C64.8439 36.4255 64.7651 35.8955 64.7651 35.3047V34.875C64.7651 34.2842 64.8439 33.756 65.0015 33.2905C65.159 32.8215 65.381 32.4222 65.6675 32.0928C65.9575 31.7598 66.2995 31.5073 66.6934 31.3354C67.0908 31.16 67.5295 31.0723 68.0093 31.0723C68.4927 31.0723 68.9331 31.16 69.3306 31.3354C69.728 31.5073 70.07 31.7598 70.3564 32.0928C70.6429 32.4222 70.8631 32.8215 71.0171 33.2905C71.1746 33.756 71.2534 34.2842 71.2534 34.875ZM69.9053 35.3047V34.8643C69.9053 34.4274 69.8623 34.0425 69.7764 33.7095C69.694 33.3729 69.5705 33.0918 69.4058 32.8662C69.2446 32.637 69.0459 32.4652 68.8096 32.3506C68.5732 32.2324 68.3065 32.1733 68.0093 32.1733C67.7121 32.1733 67.4471 32.2324 67.2144 32.3506C66.9816 32.4652 66.7829 32.637 66.6182 32.8662C66.457 33.0918 66.3335 33.3729 66.2476 33.7095C66.1616 34.0425 66.1187 34.4274 66.1187 34.8643V35.3047C66.1187 35.7415 66.1616 36.1283 66.2476 36.4648C66.3335 36.8014 66.4588 37.0861 66.6235 37.3188C66.7918 37.548 66.9924 37.7217 67.2251 37.8398C67.4578 37.9544 67.7228 38.0117 68.02 38.0117C68.3208 38.0117 68.5876 37.9544 68.8203 37.8398C69.0531 37.7217 69.25 37.548 69.4111 37.3188C69.5723 37.0861 69.694 36.8014 69.7764 36.4648C69.8623 36.1283 69.9053 35.7415 69.9053 35.3047ZM73.1016 31.1797H75.8677C76.4621 31.1797 76.9688 31.2692 77.3877 31.4482C77.8066 31.6273 78.1271 31.8923 78.3491 32.2432C78.5747 32.5905 78.6875 33.0202 78.6875 33.5322C78.6875 33.9225 78.6159 34.2663 78.4727 34.5635C78.3294 34.8607 78.1271 35.1113 77.8657 35.3154C77.6043 35.516 77.2928 35.6717 76.9312 35.7827L76.5229 35.9814H74.0361L74.0254 34.9126H75.8892C76.2114 34.9126 76.48 34.8553 76.6948 34.7407C76.9097 34.6261 77.0708 34.4704 77.1782 34.2734C77.2892 34.0729 77.3447 33.8473 77.3447 33.5967C77.3447 33.3245 77.291 33.0882 77.1836 32.8877C77.0798 32.6836 76.9186 32.5278 76.7002 32.4204C76.4818 32.3094 76.2043 32.2539 75.8677 32.2539H74.4497V39H73.1016V31.1797ZM77.5649 39L75.728 35.4873L77.1406 35.4819L79.0044 38.9302V39H77.5649Z"/>
</mask>
<path d="M9.14307 31.1797V39H7.79492V31.1797H9.14307ZM12.3335 34.6011V35.6699H8.79932V34.6011H12.3335ZM12.7793 31.1797V32.2539H8.79932V31.1797H12.7793ZM15.793 31.1797V39H14.4448V31.1797H15.793ZM21.0249 31.1797V39H19.6875V31.1797H21.0249ZM23.4795 31.1797V32.2539H17.2544V31.1797H23.4795ZM28.54 31.1797H29.7432L32.0044 37.2114L34.2603 31.1797H35.4634L32.4771 39H31.521L28.54 31.1797ZM27.9922 31.1797H29.1362L29.335 36.4004V39H27.9922V31.1797ZM34.8672 31.1797H36.0166V39H34.6685V36.4004L34.8672 31.1797ZM44.353 34.875V35.3047C44.353 35.8955 44.276 36.4255 44.1221 36.8945C43.9681 37.3636 43.7479 37.7629 43.4614 38.0923C43.1785 38.4217 42.8384 38.6742 42.4409 38.8496C42.0435 39.0215 41.603 39.1074 41.1196 39.1074C40.6398 39.1074 40.2012 39.0215 39.8037 38.8496C39.4098 38.6742 39.0679 38.4217 38.7778 38.0923C38.4878 37.7629 38.2622 37.3636 38.1011 36.8945C37.9435 36.4255 37.8647 35.8955 37.8647 35.3047V34.875C37.8647 34.2842 37.9435 33.756 38.1011 33.2905C38.2586 32.8215 38.4806 32.4222 38.7671 32.0928C39.0571 31.7598 39.3991 31.5073 39.793 31.3354C40.1904 31.16 40.6291 31.0723 41.1089 31.0723C41.5923 31.0723 42.0327 31.16 42.4302 31.3354C42.8276 31.5073 43.1696 31.7598 43.4561 32.0928C43.7425 32.4222 43.9627 32.8215 44.1167 33.2905C44.2743 33.756 44.353 34.2842 44.353 34.875ZM43.0049 35.3047V34.8643C43.0049 34.4274 42.9619 34.0425 42.876 33.7095C42.7936 33.3729 42.6701 33.0918 42.5054 32.8662C42.3442 32.637 42.1455 32.4652 41.9092 32.3506C41.6729 32.2324 41.4061 32.1733 41.1089 32.1733C40.8117 32.1733 40.5467 32.2324 40.314 32.3506C40.0812 32.4652 39.8825 32.637 39.7178 32.8662C39.5566 33.0918 39.4331 33.3729 39.3472 33.7095C39.2612 34.0425 39.2183 34.4274 39.2183 34.8643V35.3047C39.2183 35.7415 39.2612 36.1283 39.3472 36.4648C39.4331 36.8014 39.5584 37.0861 39.7231 37.3188C39.8914 37.548 40.092 37.7217 40.3247 37.8398C40.5575 37.9544 40.8224 38.0117 41.1196 38.0117C41.4204 38.0117 41.6872 37.9544 41.9199 37.8398C42.1527 37.7217 42.3496 37.548 42.5107 37.3188C42.6719 37.0861 42.7936 36.8014 42.876 36.4648C42.9619 36.1283 43.0049 35.7415 43.0049 35.3047ZM52.4048 31.1797V39H51.0566L47.5493 33.3979V39H46.2012V31.1797H47.5493L51.0674 36.7925V31.1797H52.4048ZM55.9502 31.1797V39H54.6021V31.1797H55.9502ZM61.1821 31.1797V39H59.8447V31.1797H61.1821ZM63.6367 31.1797V32.2539H57.4116V31.1797H63.6367ZM71.2534 34.875V35.3047C71.2534 35.8955 71.1764 36.4255 71.0225 36.8945C70.8685 37.3636 70.6483 37.7629 70.3618 38.0923C70.0789 38.4217 69.7388 38.6742 69.3413 38.8496C68.9438 39.0215 68.5034 39.1074 68.02 39.1074C67.5402 39.1074 67.1016 39.0215 66.7041 38.8496C66.3102 38.6742 65.9683 38.4217 65.6782 38.0923C65.3882 37.7629 65.1626 37.3636 65.0015 36.8945C64.8439 36.4255 64.7651 35.8955 64.7651 35.3047V34.875C64.7651 34.2842 64.8439 33.756 65.0015 33.2905C65.159 32.8215 65.381 32.4222 65.6675 32.0928C65.9575 31.7598 66.2995 31.5073 66.6934 31.3354C67.0908 31.16 67.5295 31.0723 68.0093 31.0723C68.4927 31.0723 68.9331 31.16 69.3306 31.3354C69.728 31.5073 70.07 31.7598 70.3564 32.0928C70.6429 32.4222 70.8631 32.8215 71.0171 33.2905C71.1746 33.756 71.2534 34.2842 71.2534 34.875ZM69.9053 35.3047V34.8643C69.9053 34.4274 69.8623 34.0425 69.7764 33.7095C69.694 33.3729 69.5705 33.0918 69.4058 32.8662C69.2446 32.637 69.0459 32.4652 68.8096 32.3506C68.5732 32.2324 68.3065 32.1733 68.0093 32.1733C67.7121 32.1733 67.4471 32.2324 67.2144 32.3506C66.9816 32.4652 66.7829 32.637 66.6182 32.8662C66.457 33.0918 66.3335 33.3729 66.2476 33.7095C66.1616 34.0425 66.1187 34.4274 66.1187 34.8643V35.3047C66.1187 35.7415 66.1616 36.1283 66.2476 36.4648C66.3335 36.8014 66.4588 37.0861 66.6235 37.3188C66.7918 37.548 66.9924 37.7217 67.2251 37.8398C67.4578 37.9544 67.7228 38.0117 68.02 38.0117C68.3208 38.0117 68.5876 37.9544 68.8203 37.8398C69.0531 37.7217 69.25 37.548 69.4111 37.3188C69.5723 37.0861 69.694 36.8014 69.7764 36.4648C69.8623 36.1283 69.9053 35.7415 69.9053 35.3047ZM73.1016 31.1797H75.8677C76.4621 31.1797 76.9688 31.2692 77.3877 31.4482C77.8066 31.6273 78.1271 31.8923 78.3491 32.2432C78.5747 32.5905 78.6875 33.0202 78.6875 33.5322C78.6875 33.9225 78.6159 34.2663 78.4727 34.5635C78.3294 34.8607 78.1271 35.1113 77.8657 35.3154C77.6043 35.516 77.2928 35.6717 76.9312 35.7827L76.5229 35.9814H74.0361L74.0254 34.9126H75.8892C76.2114 34.9126 76.48 34.8553 76.6948 34.7407C76.9097 34.6261 77.0708 34.4704 77.1782 34.2734C77.2892 34.0729 77.3447 33.8473 77.3447 33.5967C77.3447 33.3245 77.291 33.0882 77.1836 32.8877C77.0798 32.6836 76.9186 32.5278 76.7002 32.4204C76.4818 32.3094 76.2043 32.2539 75.8677 32.2539H74.4497V39H73.1016V31.1797ZM77.5649 39L75.728 35.4873L77.1406 35.4819L79.0044 38.9302V39H77.5649Z" fill="white"/>
<path d="M9.14307 31.1797H10.1431V30.1797H9.14307V31.1797ZM9.14307 39V40H10.1431V39H9.14307ZM7.79492 39H6.79492V40H7.79492V39ZM7.79492 31.1797V30.1797H6.79492V31.1797H7.79492ZM12.3335 34.6011H13.3335V33.6011H12.3335V34.6011ZM12.3335 35.6699V36.6699H13.3335V35.6699H12.3335ZM8.79932 35.6699H7.79932V36.6699H8.79932V35.6699ZM8.79932 34.6011V33.6011H7.79932V34.6011H8.79932ZM12.7793 31.1797H13.7793V30.1797H12.7793V31.1797ZM12.7793 32.2539V33.2539H13.7793V32.2539H12.7793ZM8.79932 32.2539H7.79932V33.2539H8.79932V32.2539ZM8.79932 31.1797V30.1797H7.79932V31.1797H8.79932ZM8.14307 31.1797V39H10.1431V31.1797H8.14307ZM9.14307 38H7.79492V40H9.14307V38ZM8.79492 39V31.1797H6.79492V39H8.79492ZM7.79492 32.1797H9.14307V30.1797H7.79492V32.1797ZM11.3335 34.6011V35.6699H13.3335V34.6011H11.3335ZM12.3335 34.6699H8.79932V36.6699H12.3335V34.6699ZM9.79932 35.6699V34.6011H7.79932V35.6699H9.79932ZM8.79932 35.6011H12.3335V33.6011H8.79932V35.6011ZM11.7793 31.1797V32.2539H13.7793V31.1797H11.7793ZM12.7793 31.2539H8.79932V33.2539H12.7793V31.2539ZM9.79932 32.2539V31.1797H7.79932V32.2539H9.79932ZM8.79932 32.1797H12.7793V30.1797H8.79932V32.1797ZM15.793 31.1797H16.793V30.1797H15.793V31.1797ZM15.793 39V40H16.793V39H15.793ZM14.4448 39H13.4448V40H14.4448V39ZM14.4448 31.1797V30.1797H13.4448V31.1797H14.4448ZM14.793 31.1797V39H16.793V31.1797H14.793ZM15.793 38H14.4448V40H15.793V38ZM15.4448 39V31.1797H13.4448V39H15.4448ZM14.4448 32.1797H15.793V30.1797H14.4448V32.1797ZM21.0249 31.1797H22.0249V30.1797H21.0249V31.1797ZM21.0249 39V40H22.0249V39H21.0249ZM19.6875 39H18.6875V40H19.6875V39ZM19.6875 31.1797V30.1797H18.6875V31.1797H19.6875ZM23.4795 31.1797H24.4795V30.1797H23.4795V31.1797ZM23.4795 32.2539V33.2539H24.4795V32.2539H23.4795ZM17.2544 32.2539H16.2544V33.2539H17.2544V32.2539ZM17.2544 31.1797V30.1797H16.2544V31.1797H17.2544ZM20.0249 31.1797V39H22.0249V31.1797H20.0249ZM21.0249 38H19.6875V40H21.0249V38ZM20.6875 39V31.1797H18.6875V39H20.6875ZM19.6875 32.1797H21.0249V30.1797H19.6875V32.1797ZM22.4795 31.1797V32.2539H24.4795V31.1797H22.4795ZM23.4795 31.2539H17.2544V33.2539H23.4795V31.2539ZM18.2544 32.2539V31.1797H16.2544V32.2539H18.2544ZM17.2544 32.1797H23.4795V30.1797H17.2544V32.1797ZM28.54 31.1797V30.1797H27.0887L27.6056 31.5359L28.54 31.1797ZM29.7432 31.1797L30.6795 30.8287L30.4362 30.1797H29.7432V31.1797ZM32.0044 37.2114L31.068 37.5625L32.0055 40.0631L32.941 37.5617L32.0044 37.2114ZM34.2603 31.1797V30.1797H33.5666L33.3236 30.8294L34.2603 31.1797ZM35.4634 31.1797L36.3976 31.5364L36.9157 30.1797H35.4634V31.1797ZM32.4771 39V40H33.1656L33.4113 39.3567L32.4771 39ZM31.521 39L30.5866 39.3562L30.832 40H31.521V39ZM27.9922 31.1797V30.1797H26.9922V31.1797H27.9922ZM29.1362 31.1797L30.1355 31.1416L30.0989 30.1797H29.1362V31.1797ZM29.335 36.4004H30.335V36.3814L30.3342 36.3624L29.335 36.4004ZM29.335 39V40H30.335V39H29.335ZM27.9922 39H26.9922V40H27.9922V39ZM34.8672 31.1797V30.1797H33.9045L33.8679 31.1416L34.8672 31.1797ZM36.0166 31.1797H37.0166V30.1797H36.0166V31.1797ZM36.0166 39V40H37.0166V39H36.0166ZM34.6685 39H33.6685V40H34.6685V39ZM34.6685 36.4004L33.6692 36.3624L33.6685 36.3814V36.4004H34.6685ZM28.54 32.1797H29.7432V30.1797H28.54V32.1797ZM28.8068 31.5307L31.068 37.5625L32.9408 36.8604L30.6795 30.8287L28.8068 31.5307ZM32.941 37.5617L35.1969 31.53L33.3236 30.8294L31.0678 36.8611L32.941 37.5617ZM34.2603 32.1797H35.4634V30.1797H34.2603V32.1797ZM34.5292 30.8229L31.5428 38.6433L33.4113 39.3567L36.3976 31.5364L34.5292 30.8229ZM32.4771 38H31.521V40H32.4771V38ZM32.4554 38.6438L29.4745 30.8235L27.6056 31.5359L30.5866 39.3562L32.4554 38.6438ZM27.9922 32.1797H29.1362V30.1797H27.9922V32.1797ZM28.137 31.2177L28.3357 36.4384L30.3342 36.3624L30.1355 31.1416L28.137 31.2177ZM28.335 36.4004V39H30.335V36.4004H28.335ZM29.335 38H27.9922V40H29.335V38ZM28.9922 39V31.1797H26.9922V39H28.9922ZM34.8672 32.1797H36.0166V30.1797H34.8672V32.1797ZM35.0166 31.1797V39H37.0166V31.1797H35.0166ZM36.0166 38H34.6685V40H36.0166V38ZM35.6685 39V36.4004H33.6685V39H35.6685ZM35.6677 36.4384L35.8665 31.2177L33.8679 31.1416L33.6692 36.3624L35.6677 36.4384ZM44.1221 36.8945L43.1719 36.5827L43.1719 36.5827L44.1221 36.8945ZM43.4614 38.0923L42.7068 37.4361L42.7028 37.4408L43.4614 38.0923ZM42.4409 38.8496L42.8378 39.7675L42.8448 39.7644L42.4409 38.8496ZM39.8037 38.8496L39.3968 39.7631L39.4068 39.7675L39.8037 38.8496ZM38.7778 38.0923L38.0273 38.7531L38.7778 38.0923ZM38.1011 36.8945L37.1531 37.2129L37.1553 37.2194L38.1011 36.8945ZM38.1011 33.2905L39.0483 33.6111L39.049 33.6089L38.1011 33.2905ZM38.7671 32.0928L38.013 31.436L38.0125 31.4366L38.7671 32.0928ZM39.793 31.3354L40.1929 32.252L40.1968 32.2503L39.793 31.3354ZM42.4302 31.3354L42.0263 32.2503L42.0333 32.2533L42.4302 31.3354ZM43.4561 32.0928L42.6979 32.7449L42.7014 32.749L43.4561 32.0928ZM44.1167 33.2905L43.1665 33.6024L43.1695 33.6111L44.1167 33.2905ZM42.876 33.7095L41.9046 33.9472L41.9077 33.9594L42.876 33.7095ZM42.5054 32.8662L41.6873 33.4414L41.6925 33.4487L41.6977 33.4559L42.5054 32.8662ZM41.9092 32.3506L41.4619 33.2451L41.4729 33.2504L41.9092 32.3506ZM40.314 32.3506L40.7557 33.2478L40.7667 33.2423L40.314 32.3506ZM39.7178 32.8662L38.9058 32.2826L38.904 32.285L39.7178 32.8662ZM39.3472 33.7095L40.3154 33.9594L40.3161 33.9569L39.3472 33.7095ZM39.7231 37.3188L38.9069 37.8965L38.9119 37.9037L38.9171 37.9108L39.7231 37.3188ZM40.3247 37.8398L39.872 38.7316L39.883 38.737L40.3247 37.8398ZM41.9199 37.8398L42.3616 38.7371L42.3726 38.7315L41.9199 37.8398ZM42.5107 37.3188L43.3288 37.894L43.3329 37.8881L42.5107 37.3188ZM42.876 36.4648L41.907 36.2174L41.9046 36.2272L42.876 36.4648ZM43.353 34.875V35.3047H45.353V34.875H43.353ZM43.353 35.3047C43.353 35.8098 43.2871 36.2318 43.1719 36.5827L45.0722 37.2064C45.265 36.6191 45.353 35.9812 45.353 35.3047H43.353ZM43.1719 36.5827C43.0541 36.9416 42.8951 37.2196 42.7068 37.4361L44.216 38.7485C44.6007 38.3061 44.8821 37.7856 45.0722 37.2064L43.1719 36.5827ZM42.7028 37.4408C42.5171 37.657 42.2982 37.8195 42.0371 37.9348L42.8448 39.7644C43.3786 39.5288 43.84 39.1864 44.2201 38.7438L42.7028 37.4408ZM42.044 37.9318C41.7857 38.0435 41.4824 38.1074 41.1196 38.1074V40.1074C41.7236 40.1074 42.3012 39.9995 42.8378 39.7675L42.044 37.9318ZM41.1196 38.1074C40.7615 38.1074 40.4599 38.0439 40.2006 37.9318L39.4068 39.7675C39.9425 39.9991 40.5181 40.1074 41.1196 40.1074V38.1074ZM40.2106 37.9361C39.9505 37.8203 39.7251 37.6549 39.5284 37.4315L38.0273 38.7531C38.4106 39.1885 38.8691 39.528 39.3968 39.7631L40.2106 37.9361ZM39.5284 37.4315C39.3353 37.2121 39.171 36.9311 39.0468 36.5697L37.1553 37.2194C37.3534 37.7961 37.6403 38.3136 38.0273 38.7531L39.5284 37.4315ZM39.049 36.5761C38.9319 36.2274 38.8647 35.8076 38.8647 35.3047H36.8647C36.8647 35.9834 36.9552 36.6235 37.1531 37.2129L39.049 36.5761ZM38.8647 35.3047V34.875H36.8647V35.3047H38.8647ZM38.8647 34.875C38.8647 34.3718 38.9319 33.9549 39.0483 33.6111L37.1539 32.9699C36.9551 33.5572 36.8647 34.1965 36.8647 34.875H38.8647ZM39.049 33.6089C39.1704 33.2475 39.3319 32.9672 39.5217 32.749L38.0125 31.4366C37.6294 31.8772 37.3468 32.3954 37.1531 32.9721L39.049 33.6089ZM39.5212 32.7496C39.7166 32.5251 39.9387 32.3629 40.1929 32.252L39.393 30.4189C38.8595 30.6517 38.3976 30.9944 38.013 31.436L39.5212 32.7496ZM40.1968 32.2503C40.4543 32.1366 40.7535 32.0723 41.1089 32.0723V30.0723C40.5046 30.0723 39.9265 30.1834 39.3891 30.4206L40.1968 32.2503ZM41.1089 32.0723C41.4689 32.0723 41.7697 32.137 42.0263 32.2503L42.834 30.4206C42.2957 30.183 41.7156 30.0723 41.1089 30.0723V32.0723ZM42.0333 32.2533C42.2897 32.3642 42.5088 32.525 42.698 32.7449L44.2142 31.4406C43.8304 30.9946 43.3656 30.6504 42.8271 30.4176L42.0333 32.2533ZM42.7014 32.749C42.8897 32.9654 43.0488 33.2435 43.1666 33.6024L45.0668 32.9787C44.8767 32.3995 44.5953 31.879 44.2107 31.4366L42.7014 32.749ZM43.1695 33.6111C43.2858 33.9549 43.353 34.3718 43.353 34.875H45.353C45.353 34.1965 45.2627 33.5572 45.0639 32.9699L43.1695 33.6111ZM44.0049 35.3047V34.8643H42.0049V35.3047H44.0049ZM44.0049 34.8643C44.0049 34.3646 43.956 33.8927 43.8443 33.4596L41.9077 33.9594C41.9678 34.1922 42.0049 34.4902 42.0049 34.8643H44.0049ZM43.8473 33.4718C43.7411 33.0379 43.5709 32.6297 43.313 32.2765L41.6977 33.4559C41.7693 33.5539 41.8461 33.7079 41.9046 33.9471L43.8473 33.4718ZM43.3234 32.291C43.0713 31.9326 42.7447 31.6443 42.3455 31.4508L41.4729 33.2504C41.5463 33.286 41.6171 33.3415 41.6873 33.4414L43.3234 32.291ZM42.3564 31.4562C41.9647 31.2603 41.5418 31.1733 41.1089 31.1733V33.1733C41.2704 33.1733 41.381 33.2045 41.462 33.245L42.3564 31.4562ZM41.1089 31.1733C40.6763 31.1733 40.2526 31.2602 39.8613 31.4589L40.7667 33.2423C40.8408 33.2046 40.9471 33.1733 41.1089 33.1733V31.1733ZM39.8723 31.4534C39.4795 31.6468 39.1577 31.9321 38.9058 32.2826L40.5298 33.4498C40.6073 33.342 40.6829 33.2836 40.7556 33.2478L39.8723 31.4534ZM38.904 32.285C38.6553 32.6332 38.4874 33.0348 38.3783 33.4621L40.3161 33.9569C40.3789 33.711 40.458 33.5504 40.5315 33.4474L38.904 32.285ZM38.3789 33.4596C38.2671 33.8927 38.2183 34.3646 38.2183 34.8643H40.2183C40.2183 34.4902 40.2553 34.1922 40.3154 33.9594L38.3789 33.4596ZM38.2183 34.8643V35.3047H40.2183V34.8643H38.2183ZM38.2183 35.3047C38.2183 35.8046 38.2672 36.2772 38.3783 36.7122L40.3161 36.2175C40.2553 35.9793 40.2183 35.6785 40.2183 35.3047H38.2183ZM38.3783 36.7122C38.488 37.1422 38.6579 37.5448 38.9069 37.8965L40.5394 36.7412C40.4589 36.6274 40.3782 36.4606 40.3161 36.2175L38.3783 36.7122ZM38.9171 37.9108C39.1697 38.2546 39.4875 38.5363 39.872 38.7315L40.7774 36.9482C40.6964 36.9071 40.6132 36.8414 40.5291 36.7269L38.9171 37.9108ZM39.883 38.737C40.2719 38.9285 40.6916 39.0117 41.1196 39.0117V37.0117C40.9532 37.0117 40.843 36.9804 40.7664 36.9427L39.883 38.737ZM41.1196 39.0117C41.5492 39.0117 41.9711 38.9293 42.3616 38.737L41.4782 36.9427C41.4032 36.9796 41.2916 37.0117 41.1196 37.0117V39.0117ZM42.3726 38.7315C42.7618 38.5339 43.0806 38.2469 43.3288 37.894L41.6927 36.7437C41.6186 36.8491 41.5436 36.9094 41.4672 36.9482L42.3726 38.7315ZM43.3329 37.8881C43.5773 37.5351 43.7422 37.132 43.8473 36.7025L41.9046 36.2272C41.845 36.4708 41.7665 36.6371 41.6885 36.7496L43.3329 37.8881ZM43.8449 36.7122C43.956 36.2772 44.0049 35.8046 44.0049 35.3047H42.0049C42.0049 35.6785 41.9679 35.9793 41.9071 36.2175L43.8449 36.7122ZM52.4048 31.1797H53.4048V30.1797H52.4048V31.1797ZM52.4048 39V40H53.4048V39H52.4048ZM51.0566 39L50.2091 39.5307L50.5029 40H51.0566V39ZM47.5493 33.3979L48.3969 32.8673L46.5493 29.9162V33.3979H47.5493ZM47.5493 39V40H48.5493V39H47.5493ZM46.2012 39H45.2012V40H46.2012V39ZM46.2012 31.1797V30.1797H45.2012V31.1797H46.2012ZM47.5493 31.1797L48.3966 30.6486L48.1027 30.1797H47.5493V31.1797ZM51.0674 36.7925L50.2201 37.3236L52.0674 40.2708V36.7925H51.0674ZM51.0674 31.1797V30.1797H50.0674V31.1797H51.0674ZM51.4048 31.1797V39H53.4048V31.1797H51.4048ZM52.4048 38H51.0566V40H52.4048V38ZM51.9042 38.4693L48.3969 32.8673L46.7017 33.9286L50.2091 39.5307L51.9042 38.4693ZM46.5493 33.3979V39H48.5493V33.3979H46.5493ZM47.5493 38H46.2012V40H47.5493V38ZM47.2012 39V31.1797H45.2012V39H47.2012ZM46.2012 32.1797H47.5493V30.1797H46.2012V32.1797ZM46.702 31.7108L50.2201 37.3236L51.9147 36.2614L48.3966 30.6486L46.702 31.7108ZM52.0674 36.7925V31.1797H50.0674V36.7925H52.0674ZM51.0674 32.1797H52.4048V30.1797H51.0674V32.1797ZM55.9502 31.1797H56.9502V30.1797H55.9502V31.1797ZM55.9502 39V40H56.9502V39H55.9502ZM54.6021 39H53.6021V40H54.6021V39ZM54.6021 31.1797V30.1797H53.6021V31.1797H54.6021ZM54.9502 31.1797V39H56.9502V31.1797H54.9502ZM55.9502 38H54.6021V40H55.9502V38ZM55.6021 39V31.1797H53.6021V39H55.6021ZM54.6021 32.1797H55.9502V30.1797H54.6021V32.1797ZM61.1821 31.1797H62.1821V30.1797H61.1821V31.1797ZM61.1821 39V40H62.1821V39H61.1821ZM59.8447 39H58.8447V40H59.8447V39ZM59.8447 31.1797V30.1797H58.8447V31.1797H59.8447ZM63.6367 31.1797H64.6367V30.1797H63.6367V31.1797ZM63.6367 32.2539V33.2539H64.6367V32.2539H63.6367ZM57.4116 32.2539H56.4116V33.2539H57.4116V32.2539ZM57.4116 31.1797V30.1797H56.4116V31.1797H57.4116ZM60.1821 31.1797V39H62.1821V31.1797H60.1821ZM61.1821 38H59.8447V40H61.1821V38ZM60.8447 39V31.1797H58.8447V39H60.8447ZM59.8447 32.1797H61.1821V30.1797H59.8447V32.1797ZM62.6367 31.1797V32.2539H64.6367V31.1797H62.6367ZM63.6367 31.2539H57.4116V33.2539H63.6367V31.2539ZM58.4116 32.2539V31.1797H56.4116V32.2539H58.4116ZM57.4116 32.1797H63.6367V30.1797H57.4116V32.1797ZM71.0225 36.8945L70.0723 36.5827L70.0723 36.5827L71.0225 36.8945ZM70.3618 38.0923L69.6072 37.4361L69.6031 37.4408L70.3618 38.0923ZM69.3413 38.8496L69.7382 39.7675L69.7452 39.7644L69.3413 38.8496ZM66.7041 38.8496L66.2972 39.7631L66.3072 39.7675L66.7041 38.8496ZM65.6782 38.0923L64.9277 38.7531L65.6782 38.0923ZM65.0015 36.8945L64.0535 37.2129L64.0557 37.2194L65.0015 36.8945ZM65.0015 33.2905L65.9487 33.6111L65.9494 33.6089L65.0015 33.2905ZM65.6675 32.0928L64.9134 31.436L64.9129 31.4366L65.6675 32.0928ZM66.6934 31.3354L67.0933 32.252L67.0972 32.2503L66.6934 31.3354ZM69.3306 31.3354L68.9267 32.2503L68.9337 32.2533L69.3306 31.3354ZM70.3564 32.0928L69.5983 32.7449L69.6018 32.749L70.3564 32.0928ZM71.0171 33.2905L70.0669 33.6024L70.0699 33.6111L71.0171 33.2905ZM69.7764 33.7095L68.8049 33.9472L68.8081 33.9594L69.7764 33.7095ZM69.4058 32.8662L68.5877 33.4414L68.5929 33.4487L68.5981 33.4559L69.4058 32.8662ZM68.8096 32.3506L68.3623 33.2451L68.3733 33.2504L68.8096 32.3506ZM67.2144 32.3506L67.6561 33.2478L67.667 33.2423L67.2144 32.3506ZM66.6182 32.8662L65.8061 32.2826L65.8044 32.285L66.6182 32.8662ZM66.2476 33.7095L67.2158 33.9594L67.2165 33.9569L66.2476 33.7095ZM66.6235 37.3188L65.8073 37.8965L65.8123 37.9037L65.8175 37.9108L66.6235 37.3188ZM67.2251 37.8398L66.7724 38.7316L66.7834 38.737L67.2251 37.8398ZM68.8203 37.8398L69.262 38.7371L69.273 38.7315L68.8203 37.8398ZM69.4111 37.3188L70.2292 37.894L70.2333 37.8881L69.4111 37.3188ZM69.7764 36.4648L68.8074 36.2174L68.805 36.2272L69.7764 36.4648ZM70.2534 34.875V35.3047H72.2534V34.875H70.2534ZM70.2534 35.3047C70.2534 35.8098 70.1875 36.2318 70.0723 36.5827L71.9726 37.2064C72.1654 36.6191 72.2534 35.9812 72.2534 35.3047H70.2534ZM70.0723 36.5827C69.9545 36.9416 69.7955 37.2196 69.6072 37.4361L71.1164 38.7485C71.5011 38.3061 71.7825 37.7856 71.9726 37.2064L70.0723 36.5827ZM69.6031 37.4408C69.4175 37.657 69.1986 37.8195 68.9375 37.9348L69.7452 39.7644C70.279 39.5288 70.7404 39.1864 71.1205 38.7438L69.6031 37.4408ZM68.9444 37.9318C68.6861 38.0435 68.3828 38.1074 68.02 38.1074V40.1074C68.624 40.1074 69.2016 39.9995 69.7382 39.7675L68.9444 37.9318ZM68.02 38.1074C67.6619 38.1074 67.3602 38.0439 67.101 37.9318L66.3072 39.7675C66.8429 39.9991 67.4185 40.1074 68.02 40.1074V38.1074ZM67.111 37.9361C66.8509 37.8203 66.6255 37.6549 66.4288 37.4315L64.9277 38.7531C65.311 39.1885 65.7695 39.528 66.2972 39.7631L67.111 37.9361ZM66.4288 37.4315C66.2357 37.2121 66.0714 36.9311 65.9472 36.5697L64.0557 37.2194C64.2538 37.7961 64.5407 38.3136 64.9277 38.7531L66.4288 37.4315ZM65.9494 36.5761C65.8323 36.2274 65.7651 35.8076 65.7651 35.3047H63.7651C63.7651 35.9834 63.8555 36.6235 64.0535 37.2129L65.9494 36.5761ZM65.7651 35.3047V34.875H63.7651V35.3047H65.7651ZM65.7651 34.875C65.7651 34.3718 65.8323 33.9549 65.9487 33.6111L64.0542 32.9699C63.8555 33.5572 63.7651 34.1965 63.7651 34.875H65.7651ZM65.9494 33.6089C66.0708 33.2475 66.2323 32.9672 66.4221 32.749L64.9129 31.4366C64.5297 31.8772 64.2472 32.3954 64.0535 32.9721L65.9494 33.6089ZM66.4216 32.7496C66.617 32.5251 66.8391 32.3629 67.0933 32.252L66.2934 30.4189C65.7599 30.6517 65.298 30.9944 64.9134 31.436L66.4216 32.7496ZM67.0972 32.2503C67.3547 32.1366 67.6539 32.0723 68.0093 32.0723V30.0723C67.405 30.0723 66.8269 30.1834 66.2895 30.4206L67.0972 32.2503ZM68.0093 32.0723C68.3693 32.0723 68.6701 32.137 68.9267 32.2503L69.7344 30.4206C69.1961 30.183 68.616 30.0723 68.0093 30.0723V32.0723ZM68.9337 32.2533C69.1901 32.3642 69.4091 32.525 69.5983 32.7449L71.1145 31.4406C70.7308 30.9946 70.266 30.6504 69.7275 30.4176L68.9337 32.2533ZM69.6018 32.749C69.7901 32.9654 69.9491 33.2435 70.067 33.6024L71.9672 32.9787C71.7771 32.3995 71.4957 31.879 71.1111 31.4366L69.6018 32.749ZM70.0699 33.6111C70.1862 33.9549 70.2534 34.3718 70.2534 34.875H72.2534C72.2534 34.1965 72.1631 33.5572 71.9643 32.9699L70.0699 33.6111ZM70.9053 35.3047V34.8643H68.9053V35.3047H70.9053ZM70.9053 34.8643C70.9053 34.3646 70.8564 33.8927 70.7446 33.4596L68.8081 33.9594C68.8682 34.1922 68.9053 34.4902 68.9053 34.8643H70.9053ZM70.7477 33.4718C70.6415 33.0379 70.4713 32.6297 70.2134 32.2765L68.5981 33.4559C68.6697 33.5539 68.7465 33.7079 68.805 33.9471L70.7477 33.4718ZM70.2238 32.291C69.9717 31.9326 69.6451 31.6443 69.2458 31.4508L68.3733 33.2504C68.4467 33.286 68.5175 33.3415 68.5877 33.4414L70.2238 32.291ZM69.2568 31.4562C68.8651 31.2603 68.4422 31.1733 68.0093 31.1733V33.1733C68.1708 33.1733 68.2814 33.2045 68.3624 33.245L69.2568 31.4562ZM68.0093 31.1733C67.5767 31.1733 67.153 31.2602 66.7617 31.4589L67.667 33.2423C67.7412 33.2046 67.8474 33.1733 68.0093 33.1733V31.1733ZM66.7727 31.4534C66.3799 31.6468 66.0581 31.9321 65.8061 32.2826L67.4302 33.4498C67.5077 33.342 67.5833 33.2836 67.656 33.2478L66.7727 31.4534ZM65.8044 32.285C65.5557 32.6332 65.3877 33.0348 65.2786 33.4621L67.2165 33.9569C67.2792 33.711 67.3584 33.5504 67.4319 33.4474L65.8044 32.285ZM65.2793 33.4596C65.1675 33.8927 65.1187 34.3646 65.1187 34.8643H67.1187C67.1187 34.4902 67.1557 34.1922 67.2158 33.9594L65.2793 33.4596ZM65.1187 34.8643V35.3047H67.1187V34.8643H65.1187ZM65.1187 35.3047C65.1187 35.8046 65.1676 36.2772 65.2786 36.7122L67.2165 36.2175C67.1557 35.9793 67.1187 35.6785 67.1187 35.3047H65.1187ZM65.2786 36.7122C65.3884 37.1422 65.5583 37.5448 65.8073 37.8965L67.4398 36.7412C67.3593 36.6274 67.2786 36.4606 67.2165 36.2175L65.2786 36.7122ZM65.8175 37.9108C66.0701 38.2546 66.3879 38.5363 66.7724 38.7315L67.6778 36.9482C67.5968 36.9071 67.5136 36.8414 67.4295 36.7269L65.8175 37.9108ZM66.7834 38.737C67.1723 38.9285 67.592 39.0117 68.02 39.0117V37.0117C67.8536 37.0117 67.7434 36.9804 67.6668 36.9427L66.7834 38.737ZM68.02 39.0117C68.4496 39.0117 68.8715 38.9293 69.262 38.737L68.3786 36.9427C68.3036 36.9796 68.192 37.0117 68.02 37.0117V39.0117ZM69.273 38.7315C69.6622 38.5339 69.981 38.2469 70.2292 37.894L68.5931 36.7437C68.519 36.8491 68.444 36.9094 68.3676 36.9482L69.273 38.7315ZM70.2333 37.8881C70.4777 37.5351 70.6426 37.132 70.7477 36.7025L68.805 36.2272C68.7454 36.4708 68.6669 36.6371 68.5889 36.7496L70.2333 37.8881ZM70.7453 36.7122C70.8564 36.2772 70.9053 35.8046 70.9053 35.3047H68.9053C68.9053 35.6785 68.8683 35.9793 68.8074 36.2175L70.7453 36.7122ZM73.1016 31.1797V30.1797H72.1016V31.1797H73.1016ZM78.3491 32.2432L77.504 32.7778L77.5105 32.7878L78.3491 32.2432ZM77.8657 35.3154L78.4744 36.1089L78.4812 36.1036L77.8657 35.3154ZM76.9312 35.7827L76.6377 34.8267L76.5634 34.8496L76.4934 34.8836L76.9312 35.7827ZM76.5229 35.9814V36.9814H76.7534L76.9607 36.8806L76.5229 35.9814ZM74.0361 35.9814L73.0362 35.9915L73.0461 36.9814H74.0361V35.9814ZM74.0254 34.9126V33.9126H73.0153L73.0254 34.9226L74.0254 34.9126ZM77.1782 34.2734L76.3033 33.7891L76.3003 33.7946L77.1782 34.2734ZM77.1836 32.8877L76.2923 33.3412L76.2971 33.3506L76.3021 33.3599L77.1836 32.8877ZM76.7002 32.4204L76.2471 33.312L76.2589 33.3178L76.7002 32.4204ZM74.4497 32.2539V31.2539H73.4497V32.2539H74.4497ZM74.4497 39V40H75.4497V39H74.4497ZM73.1016 39H72.1016V40H73.1016V39ZM77.5649 39L76.6788 39.4634L76.9594 40H77.5649V39ZM75.728 35.4873L75.7242 34.4873L74.0799 34.4936L74.8419 35.9507L75.728 35.4873ZM77.1406 35.4819L78.0203 35.0064L77.7356 34.4797L77.1368 34.4819L77.1406 35.4819ZM79.0044 38.9302H80.0044V38.6772L79.8841 38.4547L79.0044 38.9302ZM79.0044 39V40H80.0044V39H79.0044ZM73.1016 32.1797H75.8677V30.1797H73.1016V32.1797ZM75.8677 32.1797C76.3662 32.1797 76.7316 32.2554 76.9947 32.3678L77.7807 30.5287C77.2059 30.2831 76.5579 30.1797 75.8677 30.1797V32.1797ZM76.9947 32.3678C77.2464 32.4753 77.4008 32.6146 77.504 32.7778L79.1942 31.7085C78.8534 31.1699 78.3669 30.7792 77.7807 30.5287L76.9947 32.3678ZM77.5105 32.7878C77.6083 32.9385 77.6875 33.1677 77.6875 33.5322H79.6875C79.6875 32.8727 79.5411 32.2425 79.1878 31.6985L77.5105 32.7878ZM77.6875 33.5322C77.6875 33.7995 77.6389 33.9902 77.5718 34.1293L79.3735 34.9976C79.5929 34.5424 79.6875 34.0456 79.6875 33.5322H77.6875ZM77.5718 34.1293C77.4956 34.2874 77.3913 34.4172 77.2503 34.5272L78.4812 36.1036C78.863 35.8055 79.1632 35.4339 79.3735 34.9976L77.5718 34.1293ZM77.2571 34.522C77.1031 34.6401 76.9021 34.7456 76.6377 34.8267L77.2246 36.7387C77.6835 36.5978 78.1055 36.3918 78.4744 36.1089L77.2571 34.522ZM76.4934 34.8836L76.0852 35.0823L76.9607 36.8806L77.3689 36.6818L76.4934 34.8836ZM76.5229 34.9814H74.0361V36.9814H76.5229V34.9814ZM75.0361 35.9714L75.0253 34.9025L73.0254 34.9226L73.0362 35.9915L75.0361 35.9714ZM74.0254 35.9126H75.8892V33.9126H74.0254V35.9126ZM75.8892 35.9126C76.3244 35.9126 76.7665 35.8358 77.1654 35.6231L76.2242 33.8584C76.1935 33.8748 76.0984 33.9126 75.8892 33.9126V35.9126ZM77.1654 35.6231C77.5371 35.4248 77.8472 35.1353 78.0561 34.7523L76.3003 33.7946C76.2944 33.8055 76.2822 33.8275 76.2242 33.8584L77.1654 35.6231ZM78.0531 34.7578C78.2537 34.3954 78.3447 34.0005 78.3447 33.5967H76.3447C76.3447 33.6942 76.3247 33.7504 76.3033 33.7891L78.0531 34.7578ZM78.3447 33.5967C78.3447 33.192 78.2642 32.7872 78.0651 32.4155L76.3021 33.3599C76.3178 33.3892 76.3447 33.4571 76.3447 33.5967H78.3447ZM78.0749 32.4342C77.8666 32.0249 77.541 31.7195 77.1415 31.5231L76.2589 33.3178C76.2712 33.3238 76.279 33.3287 76.2835 33.3318C76.2878 33.3348 76.2896 33.3366 76.2898 33.3368C76.29 33.337 76.29 33.337 76.2899 33.3368C76.2899 33.3368 76.2898 33.3367 76.2898 33.3367C76.2897 33.3366 76.2897 33.3366 76.2897 33.3366C76.2897 33.3366 76.2899 33.3369 76.2903 33.3375C76.2907 33.3382 76.2914 33.3393 76.2923 33.3412L78.0749 32.4342ZM77.1532 31.5289C76.752 31.325 76.306 31.2539 75.8677 31.2539V33.2539C76.1025 33.2539 76.2115 33.2938 76.2471 33.3119L77.1532 31.5289ZM75.8677 31.2539H74.4497V33.2539H75.8677V31.2539ZM73.4497 32.2539V39H75.4497V32.2539H73.4497ZM74.4497 38H73.1016V40H74.4497V38ZM74.1016 39V31.1797H72.1016V39H74.1016ZM78.4511 38.5366L76.6142 35.0239L74.8419 35.9507L76.6788 39.4634L78.4511 38.5366ZM75.7318 36.4873L77.1444 36.4819L77.1368 34.4819L75.7242 34.4873L75.7318 36.4873ZM76.2609 35.9574L78.1247 39.4057L79.8841 38.4547L78.0203 35.0064L76.2609 35.9574ZM78.0044 38.9302V39H80.0044V38.9302H78.0044ZM79.0044 38H77.5649V40H79.0044V38Z" fill="white" mask="url(#path-3-outside-1_160_842)"/>
</g>
</g>
<defs>
<filter id="filter0_d_160_842" x="3.79492" y="31.0723" width="79.2095" height="16.0352" filterUnits="userSpaceOnUse" color-interpolation-filters="sRGB">
<feFlood flood-opacity="0" result="BackgroundImageFix"/>
<feColorMatrix in="SourceAlpha" type="matrix" values="0 0 0 0 0 0 0 0 0 0 0 0 0 0 0 0 0 0 127 0" result="hardAlpha"/>
<feOffset dy="4"/>
<feGaussianBlur stdDeviation="2"/>
<feComposite in2="hardAlpha" operator="out"/>
<feColorMatrix type="matrix" values="0 0 0 0 0 0 0 0 0 0 0 0 0 0 0 0 0 0 0.25 0"/>
<feBlend mode="normal" in2="BackgroundImageFix" result="effect1_dropShadow_160_842"/>
<feBlend mode="normal" in="SourceGraphic" in2="effect1_dropShadow_160_842" result="shape"/>
</filter>
<clipPath id="clip0_160_842">
<rect width="87" height="48" fill="white"/>
</clipPath>
</defs>
</svg>
